<svg width="50" height="53" viewBox="0 0 50 53" fill="none" xmlns="http://www.w3.org/2000/svg">
<path d="M47.5 38.2332V14.6582C47.5 12.484 45.825 10.729 43.75 10.729H8.725C6.65 10.729 4.975 12.484 4.975 14.6582V38.2332C4.975 40.4073 6.65 42.1623 8.725 42.1623H43.75C45.825 42.1623 47.5 40.4073 47.5 38.2332ZM44.225 14.37C45.05 15.2344 44.6 16.1251 44.15 16.5704L34 26.3147L43.75 36.9496C44.05 37.3164 44.25 37.8926 43.9 38.2856C43.575 38.7047 42.825 38.6785 42.5 38.4165L31.575 28.646L26.225 33.7539L20.9 28.646L9.975 38.4165C9.65 38.6785 8.9 38.7047 8.575 38.2856C8.225 37.8926 8.425 37.3164 8.725 36.9496L18.475 26.3147L8.325 16.5704C7.875 16.1251 7.425 15.2344 8.25 14.37C9.075 13.5056 9.925 13.9247 10.625 14.5534L26.225 27.7554L41.85 14.5534C42.55 13.9247 43.4 13.5056 44.225 14.37Z" fill="#FFCF29"/>
</svg>
