<svg width="50" height="54" viewBox="0 0 50 54" fill="none" xmlns="http://www.w3.org/2000/svg">
<path fill-rule="evenodd" clip-rule="evenodd" d="M15.5521 2.97024C17.9958 2.85237 18.775 2.82617 25 2.82617C31.225 2.82617 32.0042 2.85455 34.4458 2.97024C36.8875 3.08593 38.5542 3.49413 40.0125 4.08569C41.5396 4.69034 42.925 5.63553 44.0708 6.85793C45.2375 8.05633 46.1375 9.50576 46.7125 11.108C47.2792 12.636 47.6667 14.3823 47.7792 16.9362C47.8917 19.5011 47.9167 20.3175 47.9167 26.8377C47.9167 33.3602 47.8896 34.1766 47.7792 36.7371C47.6688 39.291 47.2792 41.0373 46.7125 42.5653C46.1375 44.1678 45.236 45.6196 44.0708 46.8197C42.925 48.0421 41.5396 48.9851 40.0125 49.5876C38.5542 50.1814 36.8875 50.5874 34.45 50.7052C32.0042 50.8231 31.225 50.8493 25 50.8493C18.775 50.8493 17.9958 50.8209 15.5521 50.7052C13.1146 50.5896 11.4479 50.1814 9.98959 49.5876C8.46025 48.9851 7.07463 48.0405 5.92917 46.8197C4.76329 45.6206 3.86107 44.1695 3.28542 42.5675C2.72084 41.0395 2.33334 39.2932 2.22084 36.7392C2.10834 34.1744 2.08334 33.358 2.08334 26.8377C2.08334 20.3153 2.11042 19.4989 2.22084 16.9406C2.33125 14.3823 2.72084 12.636 3.28542 11.108C3.86193 9.50593 4.76483 8.05483 5.93125 6.85575C7.07509 5.63444 8.45932 4.68913 9.9875 4.08569C11.4458 3.49413 13.1125 3.08812 15.55 2.97024H15.5521ZM34.2604 7.29232C31.8438 7.17663 31.1188 7.15262 25 7.15262C18.8813 7.15262 18.1563 7.17663 15.7396 7.29232C13.5042 7.39929 12.2917 7.79002 11.4833 8.11963C10.4146 8.55621 9.65 9.07355 8.84792 9.91395C8.0876 10.689 7.50246 11.6325 7.13542 12.6753C6.82084 13.5222 6.44792 14.7927 6.34584 17.1349C6.23542 19.667 6.2125 20.4267 6.2125 26.8377C6.2125 33.2488 6.23542 34.0085 6.34584 36.5406C6.44792 38.8828 6.82084 40.1533 7.13542 41.0002C7.50209 42.0414 8.0875 42.9866 8.84792 43.7615C9.5875 44.5583 10.4896 45.1717 11.4833 45.5559C12.2917 45.8855 13.5042 46.2762 15.7396 46.3832C18.1563 46.4989 18.8792 46.5229 25 46.5229C31.1208 46.5229 31.8438 46.4989 34.2604 46.3832C36.4958 46.2762 37.7083 45.8855 38.5167 45.5559C39.5854 45.1193 40.35 44.6019 41.1521 43.7615C41.9125 42.9866 42.4979 42.0414 42.8646 41.0002C43.1792 40.1533 43.5521 38.8828 43.6542 36.5406C43.7646 34.0085 43.7875 33.2488 43.7875 26.8377C43.7875 20.4267 43.7646 19.667 43.6542 17.1349C43.5521 14.7927 43.1792 13.5222 42.8646 12.6753C42.4479 11.5555 41.9542 10.7544 41.1521 9.91395C40.4123 9.11736 39.5119 8.50428 38.5167 8.11963C37.7083 7.79002 36.4958 7.39929 34.2604 7.29232ZM22.0729 34.2399C23.7076 34.9529 25.5279 35.0491 27.2228 34.5121C28.9177 33.9751 30.3821 32.8383 31.3659 31.2957C32.3496 29.7531 32.7918 27.9005 32.6168 26.0543C32.4417 24.2081 31.6604 22.4829 30.4063 21.1732C29.6067 20.336 28.64 19.695 27.5757 19.2962C26.5114 18.8975 25.3759 18.751 24.251 18.8672C23.1262 18.9835 22.0399 19.3596 21.0704 19.9685C20.101 20.5775 19.2724 21.404 18.6444 22.3887C18.0164 23.3734 17.6046 24.4918 17.4386 25.6633C17.2726 26.8348 17.3566 28.0302 17.6845 29.1636C18.0124 30.297 18.576 31.3402 19.3348 32.2179C20.0937 33.0957 21.0288 33.7862 22.0729 34.2399ZM16.6708 18.1106C17.7646 16.9646 19.0632 16.0555 20.4923 15.4352C21.9214 14.815 23.4531 14.4957 25 14.4957C26.5469 14.4957 28.0786 14.815 29.5077 15.4352C30.9368 16.0555 32.2354 16.9646 33.3292 18.1106C34.423 19.2567 35.2906 20.6173 35.8826 22.1147C36.4745 23.6121 36.7792 25.217 36.7792 26.8377C36.7792 28.4585 36.4745 30.0634 35.8826 31.5608C35.2906 33.0582 34.423 34.4188 33.3292 35.5649C31.1201 37.8794 28.124 39.1798 25 39.1798C21.876 39.1798 18.8799 37.8794 16.6708 35.5649C14.4618 33.2503 13.2208 30.111 13.2208 26.8377C13.2208 23.5644 14.4618 20.4252 16.6708 18.1106ZM39.3917 16.3338C39.6627 16.0659 39.8797 15.7437 40.0298 15.3864C40.1799 15.029 40.26 14.6437 40.2655 14.2533C40.2709 13.863 40.2015 13.4754 40.0614 13.1136C39.9213 12.7518 39.7134 12.4232 39.4499 12.1471C39.1864 11.871 38.8728 11.6532 38.5275 11.5064C38.1822 11.3596 37.8123 11.2869 37.4397 11.2926C37.0672 11.2983 36.6994 11.3823 36.3584 11.5395C36.0173 11.6968 35.7099 11.9241 35.4542 12.2081C34.9569 12.7605 34.6847 13.4941 34.6952 14.2533C34.7058 15.0126 34.9983 15.7376 35.5107 16.2745C36.0232 16.8114 36.7151 17.1179 37.4397 17.129C38.1643 17.1401 38.8645 16.8548 39.3917 16.3338Z" fill="#FFCF29"/>
</svg>
