<svg width="50" height="54" viewBox="0 0 50 54" fill="none" xmlns="http://www.w3.org/2000/svg">
<path d="M37.5 22.1418H34.375C34.3738 20.8396 33.8795 19.5911 33.0007 18.6703C32.1219 17.7495 30.9303 17.2317 29.6875 17.2304V13.9561C31.7587 13.9587 33.7444 14.8219 35.209 16.3565C36.6736 17.891 37.4975 19.9716 37.5 22.1418Z" fill="#FFCF29"/>
<path d="M43.75 22.1418H40.625C40.6217 19.1035 39.4683 16.1906 37.4178 14.0421C35.3674 11.8937 32.5873 10.6852 29.6875 10.6817V7.40742C33.4158 7.41175 36.9903 8.96551 39.6266 11.7278C42.263 14.4901 43.7459 18.2353 43.75 22.1418ZM40.625 48.3362H40.3594C9.65625 46.4863 5.29688 19.3423 4.6875 11.0583C4.59226 9.75959 4.99326 8.47446 5.80229 7.48555C6.61132 6.49664 7.76212 5.88494 9.00156 5.785C9.12552 5.77518 9.25 5.77027 9.375 5.77027H17.6094C18.2352 5.76963 18.8469 5.96592 19.3651 6.33371C19.8832 6.7015 20.2841 7.22384 20.5156 7.83308L22.8906 13.956C23.1193 14.5512 23.176 15.2037 23.0538 15.8324C22.9316 16.461 22.6358 17.0382 22.2031 17.4923L18.875 21.0122C19.3928 24.1085 20.8069 26.9632 22.9255 29.1889C25.0442 31.4147 27.7649 32.9039 30.7188 33.4545L34.1094 29.9346C34.5492 29.4863 35.1053 29.1836 35.7083 29.0642C36.3112 28.9449 36.9344 29.0141 37.5 29.2634L43.3906 31.7355C43.9633 31.9858 44.4519 32.4091 44.7942 32.9514C45.1365 33.4937 45.3169 34.1305 45.3125 34.7806V43.4248C45.3125 44.7274 44.8186 45.9766 43.9396 46.8977C43.0605 47.8188 41.8682 48.3362 40.625 48.3362ZM9.375 9.04457C9.16981 9.04392 8.96651 9.08563 8.7767 9.16731C8.58689 9.24899 8.4143 9.36904 8.26877 9.52061C8.12325 9.67217 8.00764 9.85229 7.92854 10.0507C7.84945 10.2491 7.80843 10.4618 7.80781 10.6768C7.80781 10.7227 7.80938 10.7679 7.8125 10.8127C8.53125 20.5046 13.1406 43.4248 40.5313 45.0619C40.9448 45.0879 41.3513 44.9407 41.6613 44.6527C41.9713 44.3648 42.1594 43.9596 42.1844 43.5263L42.1875 43.4248V34.7806L36.2969 32.3085L31.8125 36.9744L31.0625 36.8762C17.4688 35.0917 15.625 20.8484 15.625 20.7011L15.5313 19.9153L19.9688 15.2166L17.625 9.04457H9.375Z" fill="#FFCF29"/>
</svg>
